<?xml version="1.0" encoding="UTF-8"?>
<svg id="Layer_2" data-name="Layer 2" xmlns="http://www.w3.org/2000/svg" viewBox="0 0 514.83 41.4">
  <defs>
    <style>
      .cls-1 {
        fill: #fff;
      }
    </style>
  </defs>
  <g id="Layer_1-2" data-name="Layer 1">
    <g>
      <g id="fish_logo" data-name="fish logo">
        <path class="cls-1" d="M118.33,20l-1,1.49c-.05,.08-.28,.42-.7,.96-2.23,2.86-9.76,11.28-23.17,14.47h0c-.2,.05-.4,.1-.6,.14-.02,0-.05,.01-.07,.02-.11,.03-.22,.05-.34,.07-3.09,.58-5.47-1.81-5.77-2.14-.02-.02-.03-.03-.03-.03-2.28-2.62-3.41-6.95-4.14-10.49-.48-2.33-.93-4.52-1.73-6.28-3.51-7.7-9.59-11.61-18.08-11.61h-12.27c-1.31,0-2.61,.29-3.77,.87-.76,.38-1.47,.89-2.07,1.51-1.48,1.53-2.26,3.54-2.21,5.68,.04,1.56,.56,3,1.42,4.2,.64,.9,1.47,1.66,2.43,2.24,1.23,.74,2.67,1.17,4.2,1.17h12.53c1.03,0,1.97,.56,2.47,1.4,.21,.36,.34,.78,.36,1.23,.05,1.53-1.18,2.79-2.71,2.79h-12.65c-7.23,0-13.27-5.78-13.47-12.88-.1-3.66,1.27-7.12,3.86-9.72,.53-.53,1.09-1,1.69-1.42,2.3-1.63,5.1-2.48,7.96-2.48h12.22c5.91,0,10.99,1.57,15.09,4.63,1.36,1.01,2.61,2.18,3.74,3.51,1.63,1.89,3.02,4.11,4.18,6.63,1.06,2.31,1.59,4.92,2.11,7.43,.64,3.12,1.2,5.46,2.17,6.98,.62,.96,1.81,1.39,2.91,1.11,10.19-2.63,16.37-8.7,18.78-11.52-.05-.07-.11-.13-.17-.2-2.92-3.45-10.48-11.18-24.03-12.28-.36-.01-.67-.21-.9-.48-2.02-2.41-3.87-3.94-6.3-5.82,0,0,6.22,.55,7.03,.63,3.22,.34,6.38,1.07,9.48,2.03,5.31,1.64,9.51,4.07,12.7,6.5,.03,.02,.05,.04,.08,.06,1.73,1.32,3.16,2.64,4.3,3.81,.1,.11,.2,.21,.3,.32,2.05,2.16,3.09,3.78,3.22,3.98l.98,1.5Z"/>
        <path class="cls-1" d="M63.08,11.72h-12.91c-1.49,0-2.71,1.22-2.71,2.71,0,.27,.04,.54,.12,.79,.34,1.11,1.37,1.92,2.59,1.92h12.91c1.93,0,3.7,.7,5.07,1.87,.68,.58,1.27,1.27,1.71,2.05,0,0,0,0,0,.01,.67,1.15,1.04,2.48,1.04,3.9,0,3.41-2.19,6.32-5.23,7.39-.81,.29-1.69,.45-2.6,.45h-12.48c-10.39,0-14.22-5.55-19.06-12.58C26.46,12.85,20.71,4.49,6.5,1.24L1.06,0,3.44,5.02l7.06,14.93L0,41.4l22.1-10.63,3.08-1.58c.76-.35,.52-2.2-.05-3.19-.53-.93-1.7-1.96-3.09-1.32l-10.26,4.96,4.72-9.64-1.27-2.69-4.23-8.96c3.56,1.5,6.33,3.46,8.66,5.67,.03,.02,.05,.05,.07,.07,2.94,2.82,5.16,6.04,7.35,9.22,2.14,3.11,4.31,6.26,7.11,8.85,.03,.02,.05,.04,.07,.07,3.8,3.51,8.75,6.01,16.34,6.01h12.48c2.24,0,4.36-.56,6.21-1.55,4.19-2.23,7.04-6.64,7.04-11.71,0-7.31-5.94-13.25-13.25-13.25Z"/>
        <circle class="cls-1" cx="97.1" cy="19.25" r="4.59" transform="translate(-1.82 22.82) rotate(-13.28)"/>
      </g>
      <path class="cls-1" d="M167.99,15.75h-23.14c-1.33,0-2.22-.91-2.22-2.26v-2.43c0-1.35,.89-2.26,2.22-2.26h29.24V2.47h-29.73c-2.75,0-4.9,.71-6.38,2.1-1.48,1.4-2.19,3.34-2.19,5.96v3.26c0,2.57,.72,4.5,2.19,5.9,1.48,1.4,3.62,2.1,6.38,2.1h23.2c1.33,0,2.22,.91,2.22,2.26v2.49c0,1.35-.89,2.26-2.22,2.26h-30.37v6.34h30.8c2.79,0,4.96-.7,6.44-2.08,1.47-1.37,2.19-3.29,2.19-5.86v-3.44c0-2.57-.73-4.5-2.22-5.89-1.5-1.4-3.65-2.11-6.41-2.11Z"/>
      <path class="cls-1" d="M199.36,2.47l-18.59,32.67h7.98l3.49-6.46h22.28l3.54,6.46h7.93L207.44,2.47h-8.09Zm-4.2,20.81l8.22-15,8.22,15h-16.44Z"/>
      <polygon class="cls-1" points="239.05 35.14 245.93 35.14 245.93 8.81 262.9 8.81 262.9 2.47 222.08 2.47 222.08 8.81 239.05 8.81 239.05 35.14"/>
      <path class="cls-1" d="M302.55,2.47h-25.24c-2.59,0-4.63,.82-6.25,2.5-1.63,1.7-2.43,3.83-2.43,6.51v14.65c0,2.68,.79,4.81,2.43,6.51,1.62,1.68,3.66,2.5,6.25,2.5h25.24c2.55,0,4.57-.81,6.17-2.47,1.61-1.68,2.4-3.82,2.4-6.53V11.48c0-2.72-.79-4.86-2.4-6.54-1.6-1.66-3.62-2.47-6.17-2.47Zm1.74,22.23c0,1.11-.34,2.07-1.02,2.85-.71,.82-1.65,1.25-2.7,1.25h-21.42c-1.07,0-2-.44-2.69-1.27-.65-.77-.98-1.72-.98-2.83V12.9c0-1.1,.33-2.06,.98-2.83,.69-.83,1.63-1.27,2.69-1.27h21.42c1.06,0,1.99,.43,2.7,1.25,.68,.78,1.02,1.74,1.02,2.85v11.8Z"/>
      <polygon class="cls-1" points="355.47 17.53 326.8 17.53 326.8 8.81 357.19 8.81 357.19 2.47 319.96 2.47 319.96 35.14 326.8 35.14 326.8 23.57 355.47 23.57 355.47 17.53"/>
      <rect class="cls-1" x="365.12" y="2.47" width="6.83" height="32.67"/>
      <path class="cls-1" d="M412.35,15.75h-23.14c-1.33,0-2.22-.91-2.22-2.26v-2.43c0-1.35,.89-2.26,2.22-2.26h29.24V2.47h-29.73c-2.75,0-4.9,.71-6.38,2.1-1.48,1.39-2.19,3.34-2.19,5.96v3.26c0,2.58,.72,4.51,2.19,5.9,1.48,1.4,3.62,2.1,6.38,2.1h23.2c1.33,0,2.22,.91,2.22,2.26v2.49c0,1.35-.89,2.26-2.22,2.26h-30.37v6.34h30.8c2.79,0,4.96-.7,6.44-2.08,1.47-1.37,2.19-3.29,2.19-5.86v-3.44c0-2.57-.73-4.5-2.22-5.89-1.5-1.4-3.65-2.11-6.41-2.11Z"/>
      <path class="cls-1" d="M434.93,24.7V12.9c0-1.1,.33-2.06,.98-2.83,.69-.83,1.62-1.27,2.69-1.27h28.55V2.47h-30.37c-2.59,0-4.63,.82-6.25,2.5-1.63,1.7-2.43,3.83-2.43,6.51v14.65c0,2.68,.79,4.81,2.43,6.51,1.62,1.68,3.66,2.5,6.25,2.5h30.8v-6.34h-28.98c-1.07,0-2-.44-2.69-1.27-.65-.77-.98-1.72-.98-2.83Z"/>
      <polygon class="cls-1" points="482.4 2.47 475.56 2.47 475.56 35.14 482.4 35.14 482.4 22.39 507.99 22.39 507.99 35.14 514.83 35.14 514.83 2.47 507.99 2.47 507.99 16.05 482.4 16.05 482.4 2.47"/>
    </g>
  </g>
</svg>